<mxfile host="65bd71144e">
    <diagram id="trnbHxQ1vyR5KEmTr66B" name="Page-1">
        <mxGraphModel dx="828" dy="563" grid="1" gridSize="10" guides="1" tooltips="1" connect="1" arrows="1" fold="1" page="1" pageScale="1" pageWidth="850" pageHeight="1100" math="0" shadow="0">
            <root>
                <mxCell id="0"/>
                <mxCell id="1" parent="0"/>
                <mxCell id="2" value="" style="endArrow=none;html=1;" edge="1" parent="1">
                    <mxGeometry width="50" height="50" relative="1" as="geometry">
                        <mxPoint x="360" y="560" as="sourcePoint"/>
                        <mxPoint x="360" y="40" as="targetPoint"/>
                    </mxGeometry>
                </mxCell>
                <mxCell id="5" value="Client" style="swimlane;whiteSpace=wrap;html=1;" vertex="1" parent="1">
                    <mxGeometry x="20" y="90" width="300" height="350" as="geometry"/>
                </mxCell>
                <mxCell id="11" value="" style="rounded=1;whiteSpace=wrap;html=1;" vertex="1" parent="5">
                    <mxGeometry x="170" y="30" width="120" height="60" as="geometry"/>
                </mxCell>
                <mxCell id="13" value="Local Filesystem" style="swimlane;whiteSpace=wrap;html=1;" vertex="1" parent="5">
                    <mxGeometry x="10" y="160" width="190" height="180" as="geometry"/>
                </mxCell>
                <mxCell id="6" value="Server" style="swimlane;whiteSpace=wrap;html=1;" vertex="1" parent="1">
                    <mxGeometry x="400" y="90" width="430" height="400" as="geometry"/>
                </mxCell>
                <mxCell id="8" value="Filesystem" style="swimlane;whiteSpace=wrap;html=1;" vertex="1" parent="6">
                    <mxGeometry x="170" y="150" width="250" height="240" as="geometry"/>
                </mxCell>
                <mxCell id="9" value="Authentication System" style="rounded=1;whiteSpace=wrap;html=1;" vertex="1" parent="6">
                    <mxGeometry x="10" y="30" width="120" height="60" as="geometry"/>
                </mxCell>
                <mxCell id="10" value="Filesystem Access" style="rounded=1;whiteSpace=wrap;html=1;" vertex="1" parent="6">
                    <mxGeometry x="10" y="110" width="120" height="60" as="geometry"/>
                </mxCell>
            </root>
        </mxGraphModel>
    </diagram>
</mxfile>